<svg xmlns="http://www.w3.org/2000/svg" viewBox="0 0 16 16"><defs><rect height="1" id="p" width="1"/></defs><g><use href="#p" x="5" y="8" fill="#e43b44"/><use href="#p" x="6" y="8" fill="#e43b44"/><use href="#p" x="7" y="8" fill="#e43b44"/><use href="#p" x="8" y="8" fill="#e43b44"/><use href="#p" x="9" y="8" fill="#e43b44"/><use href="#p" x="10" y="8" fill="#e43b44"/><use href="#p" x="11" y="8" fill="#e43b44"/><use href="#p" x="12" y="8" fill="#e43b44"/><use href="#p" x="13" y="8" fill="#e43b44"/><use href="#p" x="14" y="8" fill="#e43b44"/><use href="#p" x="15" y="8" fill="#e43b44"/><use href="#p" x="5" y="9" fill="#e43b44"/><use href="#p" x="6" y="9" fill="#ffffff"/><use href="#p" x="7" y="9" fill="#ffffff"/><use href="#p" x="8" y="9" fill="#ffffff"/><use href="#p" x="9" y="9" fill="#ffffff"/><use href="#p" x="10" y="9" fill="#e43b44"/><use href="#p" x="11" y="9" fill="#e43b44"/><use href="#p" x="12" y="9" fill="#ffffff"/><use href="#p" x="13" y="9" fill="#ffffff"/><use href="#p" x="14" y="9" fill="#e43b44"/><use href="#p" x="15" y="9" fill="#e43b44"/><use href="#p" x="5" y="10" fill="#e43b44"/><use href="#p" x="6" y="10" fill="#ffffff"/><use href="#p" x="7" y="10" fill="#e43b44"/><use href="#p" x="8" y="10" fill="#e43b44"/><use href="#p" x="9" y="10" fill="#e43b44"/><use href="#p" x="10" y="10" fill="#e43b44"/><use href="#p" x="11" y="10" fill="#ffffff"/><use href="#p" x="12" y="10" fill="#e43b44"/><use href="#p" x="13" y="10" fill="#e43b44"/><use href="#p" x="14" y="10" fill="#ffffff"/><use href="#p" x="15" y="10" fill="#e43b44"/><use href="#p" x="5" y="11" fill="#e43b44"/><use href="#p" x="6" y="11" fill="#ffffff"/><use href="#p" x="7" y="11" fill="#ffffff"/><use href="#p" x="8" y="11" fill="#ffffff"/><use href="#p" x="9" y="11" fill="#e43b44"/><use href="#p" x="10" y="11" fill="#e43b44"/><use href="#p" x="11" y="11" fill="#ffffff"/><use href="#p" x="12" y="11" fill="#e43b44"/><use href="#p" x="13" y="11" fill="#e43b44"/><use href="#p" x="14" y="11" fill="#ffffff"/><use href="#p" x="15" y="11" fill="#e43b44"/><use href="#p" x="5" y="12" fill="#e43b44"/><use href="#p" x="6" y="12" fill="#e43b44"/><use href="#p" x="7" y="12" fill="#e43b44"/><use href="#p" x="8" y="12" fill="#e43b44"/><use href="#p" x="9" y="12" fill="#ffffff"/><use href="#p" x="10" y="12" fill="#e43b44"/><use href="#p" x="11" y="12" fill="#ffffff"/><use href="#p" x="12" y="12" fill="#e43b44"/><use href="#p" x="13" y="12" fill="#e43b44"/><use href="#p" x="14" y="12" fill="#ffffff"/><use href="#p" x="15" y="12" fill="#e43b44"/><use href="#p" x="5" y="13" fill="#e43b44"/><use href="#p" x="6" y="13" fill="#ffffff"/><use href="#p" x="7" y="13" fill="#e43b44"/><use href="#p" x="8" y="13" fill="#e43b44"/><use href="#p" x="9" y="13" fill="#ffffff"/><use href="#p" x="10" y="13" fill="#e43b44"/><use href="#p" x="11" y="13" fill="#ffffff"/><use href="#p" x="12" y="13" fill="#e43b44"/><use href="#p" x="13" y="13" fill="#e43b44"/><use href="#p" x="14" y="13" fill="#ffffff"/><use href="#p" x="15" y="13" fill="#e43b44"/><use href="#p" x="5" y="14" fill="#e43b44"/><use href="#p" x="6" y="14" fill="#e43b44"/><use href="#p" x="7" y="14" fill="#ffffff"/><use href="#p" x="8" y="14" fill="#ffffff"/><use href="#p" x="9" y="14" fill="#e43b44"/><use href="#p" x="10" y="14" fill="#e43b44"/><use href="#p" x="11" y="14" fill="#e43b44"/><use href="#p" x="12" y="14" fill="#ffffff"/><use href="#p" x="13" y="14" fill="#ffffff"/><use href="#p" x="14" y="14" fill="#e43b44"/><use href="#p" x="15" y="14" fill="#e43b44"/><use href="#p" x="5" y="15" fill="#e43b44"/><use href="#p" x="6" y="15" fill="#e43b44"/><use href="#p" x="7" y="15" fill="#e43b44"/><use href="#p" x="8" y="15" fill="#e43b44"/><use href="#p" x="9" y="15" fill="#e43b44"/><use href="#p" x="10" y="15" fill="#e43b44"/><use href="#p" x="11" y="15" fill="#e43b44"/><use href="#p" x="12" y="15" fill="#e43b44"/><use href="#p" x="13" y="15" fill="#e43b44"/><use href="#p" x="14" y="15" fill="#e43b44"/><use href="#p" x="15" y="15" fill="#e43b44"/></g></svg>