<svg xmlns="http://www.w3.org/2000/svg" viewBox="0 0 16 16"><defs><rect height="1" id="p" width="1"/></defs><g><use href="#p" fill="#e43b44"/><use href="#p" x="1" fill="#e43b44"/><use href="#p" y="1" fill="#e43b44"/><use href="#p" x="1" y="1" fill="#e43b44"/><use href="#p" x="2" y="1" fill="#e43b44"/><use href="#p" x="1" y="2" fill="#e43b44"/><use href="#p" x="2" y="2" fill="#e43b44"/><use href="#p" x="3" y="2" fill="#e43b44"/><use href="#p" x="2" y="3" fill="#e43b44"/><use href="#p" x="3" y="3" fill="#e43b44"/><use href="#p" x="4" y="3" fill="#e43b44"/><use href="#p" x="3" y="4" fill="#e43b44"/><use href="#p" x="4" y="4" fill="#e43b44"/><use href="#p" x="5" y="4" fill="#e43b44"/><use href="#p" x="4" y="5" fill="#e43b44"/><use href="#p" x="5" y="5" fill="#e43b44"/><use href="#p" x="6" y="5" fill="#e43b44"/><use href="#p" x="5" y="6" fill="#e43b44"/><use href="#p" x="6" y="6" fill="#e43b44"/><use href="#p" x="7" y="6" fill="#e43b44"/><use href="#p" x="6" y="7" fill="#e43b44"/><use href="#p" x="7" y="7" fill="#e43b44"/><use href="#p" x="8" y="7" fill="#e43b44"/><use href="#p" x="7" y="8" fill="#e43b44"/><use href="#p" x="8" y="8" fill="#e43b44"/><use href="#p" x="9" y="8" fill="#e43b44"/><use href="#p" x="8" y="9" fill="#e43b44"/><use href="#p" x="9" y="9" fill="#e43b44"/><use href="#p" x="10" y="9" fill="#e43b44"/><use href="#p" x="9" y="10" fill="#e43b44"/><use href="#p" x="10" y="10" fill="#e43b44"/><use href="#p" x="11" y="10" fill="#e43b44"/><use href="#p" x="10" y="11" fill="#e43b44"/><use href="#p" x="11" y="11" fill="#e43b44"/><use href="#p" x="12" y="11" fill="#e43b44"/><use href="#p" x="11" y="12" fill="#e43b44"/><use href="#p" x="12" y="12" fill="#e43b44"/><use href="#p" x="13" y="12" fill="#e43b44"/><use href="#p" x="12" y="13" fill="#e43b44"/><use href="#p" x="13" y="13" fill="#e43b44"/><use href="#p" x="14" y="13" fill="#e43b44"/><use href="#p" x="13" y="14" fill="#e43b44"/><use href="#p" x="14" y="14" fill="#e43b44"/><use href="#p" x="15" y="14" fill="#e43b44"/><use href="#p" x="14" y="15" fill="#e43b44"/><use href="#p" x="15" y="15" fill="#e43b44"/></g></svg>