<svg xmlns="http://www.w3.org/2000/svg" viewBox="0 0 16 16"><defs><rect height="1" id="p" width="1"/></defs><g><use href="#p" fill="#e43b44"/><use href="#p" x="1" fill="#e43b44"/><use href="#p" x="2" fill="transparent"/><use href="#p" x="3" fill="transparent"/><use href="#p" x="4" fill="transparent"/><use href="#p" x="5" fill="transparent"/><use href="#p" x="6" fill="transparent"/><use href="#p" x="7" fill="transparent"/><use href="#p" x="8" fill="transparent"/><use href="#p" x="9" fill="transparent"/><use href="#p" x="10" fill="transparent"/><use href="#p" x="11" fill="transparent"/><use href="#p" x="12" fill="transparent"/><use href="#p" x="13" fill="transparent"/><use href="#p" x="14" fill="transparent"/><use href="#p" x="15" fill="transparent"/><use href="#p" y="1" fill="#00000040"/><use href="#p" x="1" y="1" fill="#e43b44"/><use href="#p" x="2" y="1" fill="#e43b44"/><use href="#p" x="3" y="1" fill="transparent"/><use href="#p" x="4" y="1" fill="transparent"/><use href="#p" x="5" y="1" fill="transparent"/><use href="#p" x="6" y="1" fill="transparent"/><use href="#p" x="7" y="1" fill="transparent"/><use href="#p" x="8" y="1" fill="transparent"/><use href="#p" x="9" y="1" fill="transparent"/><use href="#p" x="10" y="1" fill="transparent"/><use href="#p" x="11" y="1" fill="transparent"/><use href="#p" x="12" y="1" fill="transparent"/><use href="#p" x="13" y="1" fill="transparent"/><use href="#p" x="14" y="1" fill="transparent"/><use href="#p" x="15" y="1" fill="transparent"/><use href="#p" y="2" fill="transparent"/><use href="#p" x="1" y="2" fill="#00000040"/><use href="#p" x="2" y="2" fill="#e43b44"/><use href="#p" x="3" y="2" fill="#e43b44"/><use href="#p" x="4" y="2" fill="transparent"/><use href="#p" x="5" y="2" fill="transparent"/><use href="#p" x="6" y="2" fill="transparent"/><use href="#p" x="7" y="2" fill="transparent"/><use href="#p" x="8" y="2" fill="transparent"/><use href="#p" x="9" y="2" fill="transparent"/><use href="#p" x="10" y="2" fill="transparent"/><use href="#p" x="11" y="2" fill="transparent"/><use href="#p" x="12" y="2" fill="transparent"/><use href="#p" x="13" y="2" fill="transparent"/><use href="#p" x="14" y="2" fill="transparent"/><use href="#p" x="15" y="2" fill="transparent"/><use href="#p" y="3" fill="transparent"/><use href="#p" x="1" y="3" fill="transparent"/><use href="#p" x="2" y="3" fill="#00000040"/><use href="#p" x="3" y="3" fill="#e43b44"/><use href="#p" x="4" y="3" fill="#e43b44"/><use href="#p" x="5" y="3" fill="transparent"/><use href="#p" x="6" y="3" fill="transparent"/><use href="#p" x="7" y="3" fill="transparent"/><use href="#p" x="8" y="3" fill="transparent"/><use href="#p" x="9" y="3" fill="transparent"/><use href="#p" x="10" y="3" fill="transparent"/><use href="#p" x="11" y="3" fill="transparent"/><use href="#p" x="12" y="3" fill="transparent"/><use href="#p" x="13" y="3" fill="transparent"/><use href="#p" x="14" y="3" fill="transparent"/><use href="#p" x="15" y="3" fill="transparent"/><use href="#p" y="4" fill="transparent"/><use href="#p" x="1" y="4" fill="transparent"/><use href="#p" x="2" y="4" fill="transparent"/><use href="#p" x="3" y="4" fill="#00000040"/><use href="#p" x="4" y="4" fill="#e43b44"/><use href="#p" x="5" y="4" fill="#e43b44"/><use href="#p" x="6" y="4" fill="transparent"/><use href="#p" x="7" y="4" fill="transparent"/><use href="#p" x="8" y="4" fill="transparent"/><use href="#p" x="9" y="4" fill="transparent"/><use href="#p" x="10" y="4" fill="transparent"/><use href="#p" x="11" y="4" fill="transparent"/><use href="#p" x="12" y="4" fill="transparent"/><use href="#p" x="13" y="4" fill="transparent"/><use href="#p" x="14" y="4" fill="transparent"/><use href="#p" x="15" y="4" fill="transparent"/><use href="#p" y="5" fill="transparent"/><use href="#p" x="1" y="5" fill="transparent"/><use href="#p" x="2" y="5" fill="transparent"/><use href="#p" x="3" y="5" fill="transparent"/><use href="#p" x="4" y="5" fill="#00000040"/><use href="#p" x="5" y="5" fill="#e43b44"/><use href="#p" x="6" y="5" fill="#e43b44"/><use href="#p" x="7" y="5" fill="transparent"/><use href="#p" x="8" y="5" fill="transparent"/><use href="#p" x="9" y="5" fill="transparent"/><use href="#p" x="10" y="5" fill="transparent"/><use href="#p" x="11" y="5" fill="transparent"/><use href="#p" x="12" y="5" fill="transparent"/><use href="#p" x="13" y="5" fill="transparent"/><use href="#p" x="14" y="5" fill="transparent"/><use href="#p" x="15" y="5" fill="transparent"/><use href="#p" y="6" fill="transparent"/><use href="#p" x="1" y="6" fill="transparent"/><use href="#p" x="2" y="6" fill="transparent"/><use href="#p" x="3" y="6" fill="transparent"/><use href="#p" x="4" y="6" fill="transparent"/><use href="#p" x="5" y="6" fill="#00000040"/><use href="#p" x="6" y="6" fill="#e43b44"/><use href="#p" x="7" y="6" fill="#e43b44"/><use href="#p" x="8" y="6" fill="transparent"/><use href="#p" x="9" y="6" fill="transparent"/><use href="#p" x="10" y="6" fill="transparent"/><use href="#p" x="11" y="6" fill="transparent"/><use href="#p" x="12" y="6" fill="transparent"/><use href="#p" x="13" y="6" fill="transparent"/><use href="#p" x="14" y="6" fill="transparent"/><use href="#p" x="15" y="6" fill="transparent"/><use href="#p" y="7" fill="transparent"/><use href="#p" x="1" y="7" fill="transparent"/><use href="#p" x="2" y="7" fill="transparent"/><use href="#p" x="3" y="7" fill="transparent"/><use href="#p" x="4" y="7" fill="transparent"/><use href="#p" x="5" y="7" fill="transparent"/><use href="#p" x="6" y="7" fill="#00000040"/><use href="#p" x="7" y="7" fill="#e43b44"/><use href="#p" x="8" y="7" fill="#e43b44"/><use href="#p" x="9" y="7" fill="transparent"/><use href="#p" x="10" y="7" fill="transparent"/><use href="#p" x="11" y="7" fill="transparent"/><use href="#p" x="12" y="7" fill="transparent"/><use href="#p" x="13" y="7" fill="transparent"/><use href="#p" x="14" y="7" fill="transparent"/><use href="#p" x="15" y="7" fill="transparent"/><use href="#p" y="8" fill="transparent"/><use href="#p" x="1" y="8" fill="transparent"/><use href="#p" x="2" y="8" fill="transparent"/><use href="#p" x="3" y="8" fill="transparent"/><use href="#p" x="4" y="8" fill="transparent"/><use href="#p" x="5" y="8" fill="transparent"/><use href="#p" x="6" y="8" fill="transparent"/><use href="#p" x="7" y="8" fill="#00000040"/><use href="#p" x="8" y="8" fill="#e43b44"/><use href="#p" x="9" y="8" fill="#e43b44"/><use href="#p" x="10" y="8" fill="transparent"/><use href="#p" x="11" y="8" fill="transparent"/><use href="#p" x="12" y="8" fill="transparent"/><use href="#p" x="13" y="8" fill="transparent"/><use href="#p" x="14" y="8" fill="transparent"/><use href="#p" x="15" y="8" fill="transparent"/><use href="#p" y="9" fill="transparent"/><use href="#p" x="1" y="9" fill="transparent"/><use href="#p" x="2" y="9" fill="transparent"/><use href="#p" x="3" y="9" fill="transparent"/><use href="#p" x="4" y="9" fill="transparent"/><use href="#p" x="5" y="9" fill="transparent"/><use href="#p" x="6" y="9" fill="transparent"/><use href="#p" x="7" y="9" fill="transparent"/><use href="#p" x="8" y="9" fill="#00000040"/><use href="#p" x="9" y="9" fill="#e43b44"/><use href="#p" x="10" y="9" fill="#e43b44"/><use href="#p" x="11" y="9" fill="transparent"/><use href="#p" x="12" y="9" fill="transparent"/><use href="#p" x="13" y="9" fill="transparent"/><use href="#p" x="14" y="9" fill="transparent"/><use href="#p" x="15" y="9" fill="transparent"/><use href="#p" y="10" fill="transparent"/><use href="#p" x="1" y="10" fill="transparent"/><use href="#p" x="2" y="10" fill="transparent"/><use href="#p" x="3" y="10" fill="transparent"/><use href="#p" x="4" y="10" fill="transparent"/><use href="#p" x="5" y="10" fill="transparent"/><use href="#p" x="6" y="10" fill="transparent"/><use href="#p" x="7" y="10" fill="transparent"/><use href="#p" x="8" y="10" fill="transparent"/><use href="#p" x="9" y="10" fill="#00000040"/><use href="#p" x="10" y="10" fill="#e43b44"/><use href="#p" x="11" y="10" fill="#e43b44"/><use href="#p" x="12" y="10" fill="transparent"/><use href="#p" x="13" y="10" fill="transparent"/><use href="#p" x="14" y="10" fill="transparent"/><use href="#p" x="15" y="10" fill="transparent"/><use href="#p" y="11" fill="transparent"/><use href="#p" x="1" y="11" fill="transparent"/><use href="#p" x="2" y="11" fill="transparent"/><use href="#p" x="3" y="11" fill="transparent"/><use href="#p" x="4" y="11" fill="transparent"/><use href="#p" x="5" y="11" fill="transparent"/><use href="#p" x="6" y="11" fill="transparent"/><use href="#p" x="7" y="11" fill="transparent"/><use href="#p" x="8" y="11" fill="transparent"/><use href="#p" x="9" y="11" fill="transparent"/><use href="#p" x="10" y="11" fill="#00000040"/><use href="#p" x="11" y="11" fill="#e43b44"/><use href="#p" x="12" y="11" fill="#e43b44"/><use href="#p" x="13" y="11" fill="transparent"/><use href="#p" x="14" y="11" fill="transparent"/><use href="#p" x="15" y="11" fill="transparent"/><use href="#p" y="12" fill="transparent"/><use href="#p" x="1" y="12" fill="transparent"/><use href="#p" x="2" y="12" fill="transparent"/><use href="#p" x="3" y="12" fill="transparent"/><use href="#p" x="4" y="12" fill="transparent"/><use href="#p" x="5" y="12" fill="transparent"/><use href="#p" x="6" y="12" fill="transparent"/><use href="#p" x="7" y="12" fill="transparent"/><use href="#p" x="8" y="12" fill="transparent"/><use href="#p" x="9" y="12" fill="transparent"/><use href="#p" x="10" y="12" fill="transparent"/><use href="#p" x="11" y="12" fill="#00000040"/><use href="#p" x="12" y="12" fill="#e43b44"/><use href="#p" x="13" y="12" fill="#e43b44"/><use href="#p" x="14" y="12" fill="transparent"/><use href="#p" x="15" y="12" fill="transparent"/><use href="#p" y="13" fill="transparent"/><use href="#p" x="1" y="13" fill="transparent"/><use href="#p" x="2" y="13" fill="transparent"/><use href="#p" x="3" y="13" fill="transparent"/><use href="#p" x="4" y="13" fill="transparent"/><use href="#p" x="5" y="13" fill="transparent"/><use href="#p" x="6" y="13" fill="transparent"/><use href="#p" x="7" y="13" fill="transparent"/><use href="#p" x="8" y="13" fill="transparent"/><use href="#p" x="9" y="13" fill="transparent"/><use href="#p" x="10" y="13" fill="transparent"/><use href="#p" x="11" y="13" fill="transparent"/><use href="#p" x="12" y="13" fill="#00000040"/><use href="#p" x="13" y="13" fill="#e43b44"/><use href="#p" x="14" y="13" fill="#e43b44"/><use href="#p" x="15" y="13" fill="transparent"/><use href="#p" y="14" fill="transparent"/><use href="#p" x="1" y="14" fill="transparent"/><use href="#p" x="2" y="14" fill="transparent"/><use href="#p" x="3" y="14" fill="transparent"/><use href="#p" x="4" y="14" fill="transparent"/><use href="#p" x="5" y="14" fill="transparent"/><use href="#p" x="6" y="14" fill="transparent"/><use href="#p" x="7" y="14" fill="transparent"/><use href="#p" x="8" y="14" fill="transparent"/><use href="#p" x="9" y="14" fill="transparent"/><use href="#p" x="10" y="14" fill="transparent"/><use href="#p" x="11" y="14" fill="transparent"/><use href="#p" x="12" y="14" fill="transparent"/><use href="#p" x="13" y="14" fill="#00000040"/><use href="#p" x="14" y="14" fill="#e43b44"/><use href="#p" x="15" y="14" fill="#e43b44"/><use href="#p" y="15" fill="transparent"/><use href="#p" x="1" y="15" fill="transparent"/><use href="#p" x="2" y="15" fill="transparent"/><use href="#p" x="3" y="15" fill="transparent"/><use href="#p" x="4" y="15" fill="transparent"/><use href="#p" x="5" y="15" fill="transparent"/><use href="#p" x="6" y="15" fill="transparent"/><use href="#p" x="7" y="15" fill="transparent"/><use href="#p" x="8" y="15" fill="transparent"/><use href="#p" x="9" y="15" fill="transparent"/><use href="#p" x="10" y="15" fill="transparent"/><use href="#p" x="11" y="15" fill="transparent"/><use href="#p" x="12" y="15" fill="transparent"/><use href="#p" x="13" y="15" fill="transparent"/><use href="#p" x="14" y="15" fill="#00000040"/><use href="#p" x="15" y="15" fill="#e43b44"/></g></svg>